<svg width="128" height="23" viewBox="0 0 128 23" fill="none" xmlns="http://www.w3.org/2000/svg">
<path d="M20.99 0.820007L10.94 11.92L0.890024 0.820007H0.650024V22H4.64002V10.66L10.79 17.29H11.06L17.27 10.66V22H21.26V0.820007H20.99Z" fill="#121212"/>
<path d="M23.6563 18.19V22H37.6063V18.19H23.6563ZM36.4963 9.61001H23.6563V13.42H36.4963V9.61001ZM37.4263 1.00001H23.6563V4.84001H37.4263V1.00001Z" fill="#121212"/>
<path d="M38.7634 1.00001V4.84001H54.0634V1.00001H38.7634ZM44.4334 22H48.4234V7.96001H44.4334V22Z" fill="#121212"/>
<path d="M63.4935 1.00001H55.7235V4.84001H63.4035C65.4135 4.84001 66.6735 6.10001 66.6735 7.90001C66.6735 9.70001 65.4135 10.99 63.4035 10.99H55.7235V22H59.7135V14.8H63.4935C68.1735 14.8 70.7835 11.74 70.7835 7.90001C70.7835 4.06001 68.1735 1.00001 63.4935 1.00001Z" fill="#121212"/>
<path d="M76.4209 1.00001H72.4309V22.24H72.7009L84.6109 10.24V22H88.6009V0.820007H88.3309L76.4209 12.79V1.00001Z" fill="#121212"/>
<path d="M102.833 22H107.813L101.033 11.35L107.363 1.00001H102.983L97.4633 9.58001H95.0033V1.00001H91.0133V22H95.0033V13.39H97.5533L102.833 22Z" fill="#121212"/>
<path d="M119.859 1.00001H115.779L108.099 22H112.629L117.819 7.00001L123.009 22H127.539L119.859 1.00001Z" fill="#121212"/>
</svg>
